<svg xmlns="http://www.w3.org/2000/svg" xmlns:xlink="http://www.w3.org/1999/xlink" version="1.1" x="0px" y="0px" viewBox="0 0 100 100" enable-background="new 0 0 100 100" xml:space="preserve" ><g><g><path  d="M62.351,24.39c0.655,0,1.187-0.53,1.187-1.186v-6.608c0-0.656-0.531-1.187-1.187-1.187H33.385    c-0.656,0-1.187,0.53-1.187,1.187v39.063c0,0.656,0.531,1.187,1.187,1.187h29.711c0.655,0,1.187-0.53,1.187-1.187v-6.581    c0-0.656-0.531-1.187-1.187-1.187H42.459v-8.26h18.426c0.655,0,1.187-0.53,1.187-1.187v-6.581c0-0.656-0.531-1.187-1.187-1.187    H42.459V24.39H62.351z"></path><path d="M38.014,90.164H7.118V7.118h83.046v52.716c1.949,1.043,3.818,2.226,5.559,3.567c0.541,0.417,1.057,0.845,1.56,1.276V7.118    C97.282,3.188,94.095,0,90.164,0H7.118C3.186,0,0,3.188,0,7.118v83.046c0,3.931,3.186,7.118,7.118,7.118h37.188    C41.7,95.056,39.568,92.639,38.014,90.164z"></path><path d="M72.537,62.062c-0.484-0.054-0.978-0.083-1.477-0.083c-0.068,0-0.135,0.008-0.199,0.012c-0.081,0-0.155-0.012-0.236-0.012    c-15.723,0-28.471,11.98-28.471,19.012S54.902,100,70.625,100C86.351,100,99.1,89.322,99.1,80.99    C99.1,73.5,87.365,62.923,72.537,62.062z M71.219,67.966c4.09,0,7.396,3.308,7.396,7.398c0,4.088-3.307,7.397-7.396,7.397    s-7.397-3.31-7.397-7.397C63.821,71.273,67.129,67.966,71.219,67.966z M70.625,94.01c-11.812,0-21.392-8.207-21.392-13.02    c0-2.943,3.589-7.148,9.07-9.977c-0.501,1.414-0.786,2.925-0.786,4.506c0,7.48,6.063,13.543,13.543,13.543    c7.479,0,13.541-6.062,13.541-13.543c0-1.44-0.231-2.827-0.643-4.127c4.907,2.709,8.061,6.532,8.061,9.598    C92.02,86.697,82.44,94.01,70.625,94.01z"></path></g></g></svg>